<?xml version="1.0" encoding="UTF-8"?>
<svg id="Layer_2" data-name="Layer 2" xmlns="http://www.w3.org/2000/svg" viewBox="0 0 16 16">
  <defs>
    <style>
      .cls-1 {
        fill: #da2128;
      }

      .cls-1, .cls-2 {
        stroke-width: 0px;
      }

      .cls-2 {
        fill: #fff;
      }
    </style>
  </defs>
  <g id="Layer_2-2" data-name="Layer 2">
    <g id="Layer_2-2" data-name="Layer 2-2">
      <g id="Icon">
        <g>
          <rect class="cls-1" width="16" height="16" rx=".96" ry=".96"/>
          <path class="cls-2" d="M10.43,4.53c-.54-.26-1.09-.39-1.65-.39-.7,0-1.34.17-1.92.5s-1.04.79-1.37,1.38c-.33.59-.5,1.23-.5,1.92s.17,1.34.5,1.92c.33.59.79,1.05,1.37,1.39.58.34,1.22.51,1.92.51.54,0,1.08-.12,1.62-.35.54-.24,1.02-.56,1.44-.98l1.27,1.42c-.59.6-1.28,1.08-2.06,1.43-.78.35-1.58.52-2.38.52-1.08,0-2.08-.26-2.98-.77-.9-.52-1.61-1.22-2.13-2.1s-.77-1.87-.77-2.94.26-2.05.79-2.93,1.24-1.57,2.15-2.08,1.91-.76,3.02-.76c.81,0,1.59.16,2.37.48.77.32,1.43.77,1.98,1.34l-1.26,1.58c-.4-.46-.87-.82-1.41-1.08h0Z"/>
        </g>
      </g>
    </g>
  </g>
</svg>